<?xml version="1.0" encoding="UTF-8"?><svg id="Calque_2" xmlns="http://www.w3.org/2000/svg" viewBox="0 0 149.23 142"><defs><style>.cls-1{fill:#272525;fill-rule:evenodd;stroke-width:0px;}</style></defs><g id="Layer_1"><path class="cls-1" d="M103.85,88.17l17.12,53.82-46.35-32.72-46.2,32.68,17.09-53.86L0,54.35l56.83-.51L74.66,0l17.91,53.82,56.66.56-45.38,33.8ZM88.36,59.82l-13.67-40.67-13.74,40.64-43.16.32,34.77,25.81-12.96,41.08,35.1-25.03,35.1,25.09-12.95-41.05,34.77-25.85-43.27-.33ZM88.77,83.27l7.93,25.69-22.03-15.55-22.03,15.6,7.91-25.81-21.56-16.11,27-.03,8.64-25.92,8.62,25.95,27.01.06-21.49,16.12ZM79.07,72.72l-4.39-12.92-4.46,12.98-13.48.06,10.72,8.12-3.88,13,11.17-7.75,10.95,7.68-3.91-13,10.74-8.04-13.45-.12Z"/></g></svg>