<?xml version="1.0" encoding="UTF-8"?><svg id="Calque_2" xmlns="http://www.w3.org/2000/svg" viewBox="0 0 111.84 111.84"><defs><style>.cls-1{fill:#070707;stroke-width:0px;}</style></defs><g id="Layer_1"><path class="cls-1" d="M111.84,111.84c-18.37-18.38-33.42-35.46-45.73-51.31.43-.92.7-1.92.86-2.96,10.04-1.05,21.26-1.64,33.83-1.64-12.57,0-23.79-.6-33.83-1.65-.16-1.05-.43-2.03-.86-2.96,12.3-15.85,27.36-32.93,45.73-51.31-18.37,18.38-35.46,33.43-51.3,45.72-.94-.42-1.93-.7-2.97-.84-1.06-10.05-1.65-21.26-1.65-33.83,0,12.57-.59,23.79-1.64,33.83-1.04.15-2.03.42-2.97.84C35.47,33.43,18.38,18.38,0,0c18.38,18.38,33.43,35.46,45.72,51.31-.42.93-.7,1.92-.85,2.96-10.04,1.05-21.25,1.65-33.83,1.65,12.58,0,23.79.59,33.83,1.64.16,1.04.43,2.04.85,2.96-12.29,15.85-27.35,32.93-45.72,51.31,18.38-18.38,35.47-33.42,51.3-45.72.94.42,1.93.69,2.97.85,1.05,10.04,1.64,21.26,1.64,33.83,0-12.56.59-23.79,1.65-33.83,1.04-.15,2.04-.42,2.97-.85,15.84,12.3,32.92,27.35,51.3,45.72Z"/></g></svg>